_________________________  Visit us at _________________________
  
http://p2pdl.com  ____________________________  http://p2pdl.com


Jolly LLB 2013 BRRip 480p x264 Hindi ESubs - ViZNU


Genre: Comedy | Drama
Plot: A small time lawyer files a PIL(Public-interest litigation) in court against his own idols case. 
Director: Subhash Kapoor
Stars: Mohan Agashe, Harsh Chhaya, Vibha Chhibber.
Rated: N/a


Info: 
http://www.imdb.com/title/tt2621000/

Trailer:


Format                         : MPEG-4
File size                      : 452 MiB
Duration                       : 2h 8mn
Overall bit rate               : 492 Kbps
Source                         : 720 Bluray DDR

Video
Format                         : AVC
Bit rate                       : 449 Kbps
Width                          : 720 pixels
Height                         : 304 pixels
Display aspect ratio           : 2.35:1
Frame rate mode                : Constant
Frame rate                     : 24.000 fps
Stream size                    : 413 MiB (91%)
Writing library                : x264 core 130 r2273

Audio
Format                         : AAC
Bit rate                       : 40.0 Kbps
Channel(s)                     : 2 channels
Channel positions              : Front: L R
Sampling rate                  : 44.1 KHz
Stream size                    : 36.8 MiB (8%)
Language                       : Hindi

Subtitle                       : Yes(English)

----------------------------------------------------------------------------------------------------


Encoded using revolutionary 10bit encoding, which enables us to provide you more crispier 
and sharper images at small sizes, just make sure you follow our instructions without a fault.
Recommend to you to use latest version of VLC player. Install K-Lite Codec Pack or shark007 codecs
in case of any kind of problem in playback (For non-VLC Media Player users). Alternatively, install
Core AVC codecs, the fastest decoder that there is coupled with Community Center Codec Pack and play
on Windows Media Player Classic. Check sample to be sure.
Enjoy!

Encoder Notes:Looking For Early Access To Anything You Can Provide DVDScr, R5, DVDR, BluRay, Direct
Audio, Music Releases and Seedboxes. We require dedicated servers, so as to do more 
and fast releases of movies.
If You Got anything to offer please contact us at "contact@p2pdl.com".

Face book Fan Page:   
http://www.fb.me/p2pdl